# xmcd CD database file
#
# Track frame offsets:
#	150
#	25707
#	44193
#	63275
#	88845
#	117344
#	137969
#	159561
#	198855
#
# Disc length: 2786 seconds
#
# Revision: 0
# Processed by: cddbd v1.5.2PL0 Copyright (c) Steve Scherf et al.
# Submitted via: CDex 1.50beta10
#
DISCID=7d0ae009
DTITLE=Jorge Garrido Monk Trio - Vintage
DYEAR=2015
DGENRE=Jazz
TTITLE0=Green Chimneys
TTITLE1=Think of one
TTITLE2=Jackie-Ing
TTITLE3=Straight, no chaser
TTITLE4=Bright Mississippi
TTITLE5=Rhythm-A-Ning
TTITLE6=Brillant corners
TTITLE7='Round midnight
TTITLE8=Solo de batería Monkiano
EXTD=YEAR: 2015
EXTT0=
EXTT1=
EXTT2=
EXTT3=
EXTT4=
EXTT5=
EXTT6=
EXTT7=
EXTT8=
PLAYORDER=
